<?xml version="1.0" standalone="no"?>
<!DOCTYPE svg PUBLIC "-//W3C//DTD SVG 20010904//EN"
 "http://www.w3.org/TR/2001/REC-SVG-20010904/DTD/svg10.dtd">
<svg version="1.0" xmlns="http://www.w3.org/2000/svg"
 width="256.000000pt" height="256.000000pt" viewBox="0 0 256.000000 256.000000"
 preserveAspectRatio="xMidYMid meet">

<g transform="translate(0.000000,256.000000) scale(0.100000,-0.100000)"
fill="#000000" stroke="none">
<path d="M0 1280 l0 -1280 1280 0 1280 0 0 1280 0 1280 -1280 0 -1280 0 0
-1280z m1250 1210 l0 -50 -485 0 -485 0 0 50 0 50 485 0 485 0 0 -50z m-886
-1106 c3 -9 6 -60 6 -114 0 -108 -8 -124 -57 -118 -42 5 -55 38 -50 138 1 47
6 91 11 98 11 18 83 15 90 -4z m472 8 c20 -13 24 -57 8 -87 -10 -20 -11 -30
-4 -35 6 -4 14 -32 17 -63 5 -49 3 -57 -11 -57 -13 0 -16 10 -16 49 0 51 -18
78 -45 67 -11 -4 -15 -21 -15 -61 0 -30 -4 -55 -10 -55 -6 0 -10 48 -10 125
l0 125 38 0 c20 0 42 -4 48 -8z m504 -1 c0 -5 -10 -11 -22 -13 -22 -3 -23 -6
-23 -116 0 -83 -3 -112 -12 -112 -10 0 -13 30 -13 115 0 108 -1 115 -20 115
-11 0 -20 5 -20 10 0 6 25 10 55 10 30 0 55 -4 55 -9z m466 -116 c15 -98 17
-125 7 -125 -7 0 -13 8 -13 19 0 44 -60 55 -70 12 -3 -14 -12 -27 -19 -29 -9
-3 -11 2 -8 14 3 11 13 67 23 127 15 98 19 107 38 107 20 0 24 -10 42 -125z
m494 115 c0 -5 -9 -10 -20 -10 -19 0 -20 -7 -20 -115 0 -96 -3 -115 -15 -115
-12 0 -15 19 -15 115 0 108 -1 115 -20 115 -11 0 -20 5 -20 10 0 6 25 10 55
10 30 0 55 -4 55 -10z m-1930 -495 c0 -10 -11 -15 -35 -15 -34 0 -35 -1 -35
-40 0 -38 2 -40 30 -40 17 0 30 -4 30 -10 0 -5 -13 -10 -30 -10 -29 0 -30 -1
-30 -50 l0 -50 35 0 c19 0 35 -4 35 -10 0 -5 -22 -10 -50 -10 l-50 0 0 125 0
125 50 0 c38 0 50 -4 50 -15z m470 -5 c40 -40 20 -120 -30 -120 -30 0 -30 -1
-30 -55 0 -42 -3 -55 -15 -55 -13 0 -15 21 -15 125 l0 125 35 0 c22 0 43 -8
55 -20z m490 5 c0 -10 -11 -15 -35 -15 -34 0 -35 -1 -35 -40 0 -38 2 -40 30
-40 17 0 30 -4 30 -10 0 -5 -13 -10 -30 -10 -29 0 -30 -1 -30 -50 l0 -50 41 0
c24 0 38 -4 34 -10 -3 -5 -26 -10 -51 -10 l-44 0 0 125 0 125 45 0 c33 0 45
-4 45 -15z"/>
<path d="M295 1367 c-3 -7 -5 -54 -3 -103 3 -88 3 -89 28 -89 l25 0 0 100 c0
96 -1 100 -23 103 -12 2 -24 -3 -27 -11z"/>
<path d="M770 1335 c0 -45 1 -46 28 -43 24 3 27 7 27 43 0 36 -3 40 -27 43
-27 3 -28 2 -28 -43z"/>
<path d="M1746 1318 c-10 -91 -9 -100 17 -96 24 3 25 15 12 106 -8 57 -21 53
-29 -10z"/>
<path d="M780 835 c0 -41 2 -45 25 -45 23 0 25 4 25 45 0 41 -2 45 -25 45 -23
0 -25 -4 -25 -45z"/>
</g>
</svg>
